<svg xmlns="http://www.w3.org/2000/svg" viewBox="0 0 300 250"><style>.st0{opacity:0.2;fill:url(#SVGID_1_);} .st1{fill:#E0E0E0;} .st2{fill:url(#SVGID_2_);}</style><radialGradient id="SVGID_1_" cx="140.8" cy="234.58" r="60.43" gradientTransform="matrix(1 0 0 .07772 0 216.353)" gradientUnits="userSpaceOnUse"><stop offset="0" stop-color="#444344"/><stop offset="1" stop-color="#444344" stop-opacity="0"/></radialGradient><ellipse class="st0" cx="140.8" cy="234.6" rx="61.7" ry="4.1"/><path class="st1" d="M229.6 125.5c-3.6-6.3-9.9-8.3-17.4-7.1 5.9-5 11.6-9.5 11.1-17.5-.4-9-7.4-11.8-15.1-13.8 4.1-6.6 5.4-13.4.8-19-5.4-6.8-12.9-7.8-20.4-4-9-8.5-10.4-9-19.8-7.4.4-18.4-5.1-23.5-19.3-20.7-5.5-1.4-9.6-3.6-13.2-3.1-8 1.2-15.6 3.8-24.5 6.1-3.7-4.3-9.2-6.6-16.1-4-5.8 2.1-12.2 3.4-17.9 6.1-2.1 1-3.6 4.8-4.2 7.5-.7 2.8-1.7 5.2-2.9 7.5v127.7c2.7-.1 5.5-.5 8.2-1 .1 1 .4 1.6.2 2.1-2.2 9.5-.8 14.3 5.1 18.1 6.4 3.9 10.9 3.2 18.8-2.7 2.6-2.1 4.9-5.3 9.2-4.1.3 3.6.2 7.4.8 10.7 1.3 7.3 7.4 13.5 14 14.6 7.4 1.1 11.9-3 15.5-8.8 1-1.5 1.9-3 3.2-4.6l2.8 3.7c5.9 6.5 11.8 8.5 18.3 6.1 6.4-2.5 9.1-7.7 8.8-17.1-.1-4-.7-8-1-13.5l8.5 8.7c8.5 7.9 20.1 5.2 24.4-5.9.6-1.8.7-4.1 1.9-5.3 5-5 5.4-11.1 4.7-17.3 15.2-6.1 17.4-10.2 13.6-25.5 4.8-4.8 5.3-10.9 1.9-16.5zM114.9 91c-2.3 2.9-6.6 3.3-9.5.9-2.9-2.3-3.4-6.6-1-9.5s6.6-3.3 9.5-.9c2.9 2.4 3.4 6.6 1 9.5zm64.2 48.6c-2.3 2.9-6.6 3.2-9.5.9s-3.4-6.6-1-9.5c2.3-2.9 6.6-3.3 9.5-.9 2.9 2.4 3.3 6.6 1 9.5z"/><linearGradient id="SVGID_2_" gradientUnits="userSpaceOnUse" x1="69.42" y1="11.31" x2="69.42" y2="240.82"><stop offset="0" stop-color="#BCBBBB"/><stop offset=".85" stop-color="#BCBBBB" stop-opacity=".15"/><stop offset="1" stop-color="#BCBBBB" stop-opacity="0"/></linearGradient><path class="st2" d="M68.2 8.5h2.4v233h-2.4z"/></svg>
