<svg xmlns="http://www.w3.org/2000/svg" viewBox="0 0 1000 1000"><path d="M694 562c6 0 6-31 6-62l-6-63h150c6 0 12 32 12 63s-6 62-12 62H694zm-81 282c25-50 43-94 62-157h131c-43 63-112 125-193 157zm-13-282H400c-6 0-6-31-6-62s0-63 6-63h206c7 0 7 32 7 63s-7 62-13 62zM500 863c-37-57-62-113-81-176h169c-19 63-50 119-88 176zM325 312H200c44-62 106-125 188-156-25 50-50 94-63 156zM200 687h125c19 63 38 107 63 157-82-32-150-94-188-157zm-37-125c-7 0-13-31-13-62s6-63 13-63h143v63s0 62 7 62H163zm337-425c38 57 69 113 81 175H419c19-62 44-118 81-175zm300 175H669c-13-62-31-106-63-156 88 31 157 94 194 156zM500 62C256 62 63 262 63 500c0 244 193 438 437 438s438-194 438-438S744 62 500 62z"/></svg>