<svg xmlns="http://www.w3.org/2000/svg" viewBox="0 0 1000 1000"><path d="M763.672 600.137c63.965-90.528 90.996-198.496 76.172-304.063C813.402 108.27 639.719-22.539 451.914 3.906c-187.5 26.348-318.633 200.352-292.285 387.852 14.785 105.254 70.547 201.484 156.973 270.976 48.007 38.438 102.168 65.43 153.554 77.5 8.067 1.938 13.215 9.848 11.719 18.008l-9.512 51.524a31.817 31.817 0 0 0 2.89 20.644 31.247 31.247 0 0 0 27.735 16.817 29.546 29.546 0 0 0 4.356-.313l34.785-4.883a3.905 3.905 0 0 1 4.082 2.227C578.867 915.176 635 968.965 706.66 997.305a31.251 31.251 0 0 0 41.016-18.848c5.526-15.977-3.204-33.34-18.907-39.61A231.571 231.571 0 0 1 612.95 837.52a3.907 3.907 0 0 1 2.831-5.86l14.453-1.953a32.32 32.32 0 0 0 19.688-10.215 31.25 31.25 0 0 0 4.668-34.765l-23.555-47.325c-3.719-7.468-.914-16.539 6.367-20.605 46.075-25.723 90.723-66.406 126.27-116.66Zm-302.54 32.773c-3.933 0-7.827-.742-11.484-2.187-80.586-31.875-149.023-102.93-178.613-185.43a31.242 31.242 0 0 1 5.367-31.004 31.25 31.25 0 0 1 53.461 9.91c28.32 78.985 92.325 128.457 142.774 148.438 13.957 5.515 22.023 20.176 19.21 34.918-2.812 14.742-15.706 25.402-30.714 25.394Zm0 0"/></svg>