<svg class="icon" viewBox="0 0 1000 1000" xmlns="http://www.w3.org/2000/svg"><path d="M394.04 236.925C176.187 236.925.501 413.615.501 630.463.502 848.313 177.192 1024 394.039 1024c217.851 0 393.537-176.69 393.537-393.537C788.58 413.616 611.89 236.925 394.04 236.925zM311.717 409.6c-56.22 0-145.569 97.38-145.569 177.694 0 16.063-13.051 28.11-28.11 28.11s-28.11-13.051-28.11-28.11c0-107.42 110.432-234.918 202.793-234.918 16.062 0 28.11 13.051 28.11 28.11S327.78 409.6 311.717 409.6z"/><path d="M689.192 426.667l-97.38-97.38a33.33 33.33 0 010-47.185l41.16-41.16c13.052-13.052 34.134-13.052 47.185 0l97.38 97.38c13.051 13.05 13.051 34.133 0 47.184l-41.16 41.16a33.33 33.33 0 01-47.185 0z"/><path d="M701.24 317.24c-9.036-9.036-9.036-25.099 0-34.134l131.513-131.514c9.035-9.035 25.098-9.035 34.133 0 9.036 9.035 9.036 25.098 0 34.133L735.373 317.24c-9.036 9.036-25.098 9.036-34.134 0zm121.474-199.781l-46.18-50.196c-7.028-8.032-7.028-20.079 1.003-27.106 8.032-7.028 20.079-7.028 27.106 1.004l46.18 50.196c7.028 8.031 7.028 20.078-1.003 27.106-7.028 7.027-19.075 6.023-27.106-1.004zM932.14 161.63l48.188 48.189c7.028 7.027 7.028 20.078 0 27.105-7.027 7.028-20.078 7.028-27.105 0l-48.189-48.188c-7.027-7.027-7.027-20.078 0-27.106 8.032-7.027 20.079-7.027 27.106 0zm23.09-121.474l-50.196 46.18c-8.031 7.028-8.031 19.075-1.004 27.106s19.075 8.032 27.106 1.004l50.196-46.18c8.032-7.028 8.032-19.075 1.004-27.106-8.031-8.032-20.078-8.032-27.106-1.004zm-96.376-21.082l-1.004 67.262c0 11.043 8.031 19.075 19.074 20.079 11.044 0 19.075-8.032 20.079-19.075l1.004-67.263c0-11.043-8.032-19.074-19.075-20.078-11.043 0-19.074 8.031-20.078 19.075zm144.565 96.376l-67.263 2.008c-11.043 0-19.075 9.035-19.075 20.078s9.036 19.075 20.079 19.075l67.263-2.008c11.043 0 19.074-9.035 19.074-20.079-1.004-11.043-10.04-19.074-20.078-19.074z"/></svg>