<svg t="1654434655619" class="icon" viewBox="0 0 1000 1000" version="1.1" xmlns="http://www.w3.org/2000/svg" p-id="15019"><path d="M800 128h-160c0-70.6-57.4-128-128-128s-128 57.4-128 128H224C171 128 128 171 128 224v704c0 53 43 96 96 96h576c53 0 96-43 96-96V224c0-53-43-96-96-96zM512 80c26.6 0 48 21.4 48 48s-21.4 48-48 48-48-21.4-48-48 21.4-48 48-48z m242.4 463.6l-286 283.6c-9.4 9.4-24.6 9.2-34-0.2l-165.2-166.6c-9.4-9.4-9.2-24.6 0.2-34L326.2 570c9.4-9.4 24.6-9.2 34 0.2l92 92.8 212-210.4c9.4-9.4 24.6-9.2 34 0.2l56.4 56.8c9.4 9.6 9.2 24.6-0.2 34z" fill="" p-id="15020"></path></svg>