<svg xmlns="http://www.w3.org/2000/svg" viewBox="0 0 1000 1000"><path d="M300 400H50a50.15 50.15 0 0 0-50 50v100a50.15 50.15 0 0 0 50 50h250a50.15 50.15 0 0 0 50-50V450a50.15 50.15 0 0 0-50-50zm650-300H700a50.15 50.15 0 0 0-50 50v100a50.15 50.15 0 0 0 50 50h250a50.15 50.15 0 0 0 50-50V150a50.15 50.15 0 0 0-50-50zm0 150H700V150h250zM300 700H50a50.15 50.15 0 0 0-50 50v100a50.15 50.15 0 0 0 50 50h250a50.15 50.15 0 0 0 50-50V750a50.15 50.15 0 0 0-50-50zm0-600H50a50.15 50.15 0 0 0-50 50v100a50.15 50.15 0 0 0 50 50h250a50.15 50.15 0 0 0 50-50V150a50.15 50.15 0 0 0-50-50zM500 0a50.15 50.15 0 0 0-50 50v900a50.15 50.15 0 0 0 50 50 50.15 50.15 0 0 0 50-50V50a50.15 50.15 0 0 0-50-50zm450 700H700a50.15 50.15 0 0 0-50 50v100a50.15 50.15 0 0 0 50 50h250a50.15 50.15 0 0 0 50-50V750a50.15 50.15 0 0 0-50-50zm0 150H700V750h250zm0-450H700a50.15 50.15 0 0 0-50 50v100a50.15 50.15 0 0 0 50 50h250a50.15 50.15 0 0 0 50-50V450a50.15 50.15 0 0 0-50-50zm0 150H700V450h250z"/></svg>