<svg xmlns="http://www.w3.org/2000/svg" viewBox="0 0 1000 1000"><path d="M475 0c262.34 0 475 212.66 475 475S737.34 950 475 950 0 737.34 0 475 212.66 0 475 0zm0 95C265.13 95 95 265.13 95 475s170.13 380 380 380 380-170.13 380-380S684.87 95 475 95zM285 475l.71 10.22C295.38 589.93 376.43 665 475 665c101.75 0 184.83-80 189.77-180.52L665 475h95l-.6 11.31C748.34 643.74 625.25 760 475 760c-153.82 0-279.18-121.86-284.8-274.32L190 475zm71.25-190A71.25 71.25 0 1 1 285 356.25 71.25 71.25 0 0 1 356.25 285zm237.5 0a71.25 71.25 0 1 1-71.25 71.25A71.25 71.25 0 0 1 593.75 285z"/></svg>