<svg xmlns="http://www.w3.org/2000/svg" viewBox="0 0 1000 1000"><path d="M500 1000c276 0 500-224 500-500S776 0 500 0 0 224 0 500s224 500 500 500zm0-906c224 0 406 182 406 406S724 906 500 906 94 724 94 500 276 94 500 94zm281 156c17 0 32 14 32 31v94c0 34-29 62-63 62H625c-34 0-62-28-62-62H438c0 34-29 62-63 62H250c-34 0-62-28-62-62v-94c0-17 14-31 31-31h187c17 0 32 14 32 31v31h125v-31c0-17 14-31 31-31h187zM500 750c91 0 171-49 214-121l54 32c-55 91-154 151-268 151-47 0-92-10-132-29l32-54c31 13 64 21 100 21z"/></svg>