<svg xmlns="http://www.w3.org/2000/svg" viewBox="0 0 1000 1000"><path d="M500 83C270 83 83 270 83 500c0 184 120 340 285 396 21 3 28-10 28-21v-70c-116 25-140-56-140-56-19-49-46-62-46-62-38-25 3-25 3-25 41 3 63 43 63 43 37 64 98 45 122 35 3-27 14-45 26-56-93-10-190-46-190-205 0-46 16-83 43-113-4-10-19-54 4-110 0 0 35-11 115 43 33-9 69-14 104-14s71 5 104 14c80-54 115-43 115-43 23 56 8 100 4 110 27 30 43 67 43 113 0 159-98 194-191 205 15 13 29 38 29 77v114c0 11 7 25 28 21 166-56 285-212 285-396 0-230-187-417-417-417z"/></svg>