<svg xmlns="http://www.w3.org/2000/svg" viewBox="0 0 1000 1000"><path d="M500 250c46 0 83 17 117 50s50 71 50 117c0 33-21 70-63 108s-62 58-62 100h-84c0-42 9-54 21-79 13-21 29-38 42-46 17-8 29-21 42-38 12-12 20-29 20-50s-8-41-25-58c-16-17-37-25-58-25s-42 8-58 25c-17 17-25 17-25 58h-84c0-41 17-83 50-116 34-29 71-46 117-46zm0 583c92 0 171-33 233-100 67-66 100-146 100-233 0-92-33-171-100-233S588 167 500 167s-171 33-233 100-100 145-100 233c0 92 33 171 100 233 62 67 141 100 233 100zm0-750c117 0 213 42 296 121s121 179 121 296-42 212-121 296-179 121-296 121-212-42-296-121S83 617 83 500s42-213 121-296S383 83 500 83zm-42 667v-83h84v83h-84z"/></svg>