<svg xmlns="http://www.w3.org/2000/svg" viewBox="0 0 1000 1000"><path d="M442 604c-4 0-13 0-17-4s-8-4-17-8c-20-21-33-42-45-67-9-25-17-50-17-75s4-50 17-75c8-25 25-46 45-67l159-158c20-21 41-33 66-46 25-8 50-17 80-17s54 5 79 17c25 8 46 25 66 46s34 42 46 67c9 25 17 50 17 75s-4 50-17 75c-8 25-25 45-46 66l-75 71c-8 8-16 13-29 13s-21-5-29-13-12-17-12-29 4-21 12-29l75-75c21-21 33-50 33-84s-12-58-33-83c-12-12-25-21-37-25s-30-8-46-8c-17 0-29 4-46 8-13 4-25 13-38 25L475 362c-21 21-33 50-33 84s12 58 33 83c8 8 13 17 13 29s-5 21-13 34c-4 4-8 8-17 8-8 4-12 4-16 4zM288 917c-25 0-55-4-80-17-25-8-45-25-66-42-21-21-34-41-46-66s-17-50-17-75 4-50 17-75 25-46 46-67l75-75c8-8 16-13 29-13s21 5 29 13 13 17 13 29-5 21-13 29l-75 75c-21 21-33 50-33 84s12 58 33 83c13 12 25 21 38 25s29 8 45 8c17 0 30-4 46-8s25-13 38-25l158-158c21-21 33-50 33-84s-12-58-33-83c-8-8-13-17-13-29s5-21 13-29c8-9 17-13 29-13s21 4 33 13c21 20 34 41 46 66 9 25 17 50 17 75s-4 50-17 75c-8 25-25 46-46 67L429 858c-21 21-42 34-67 42-25 13-50 17-75 17z"/></svg>