<svg xmlns="http://www.w3.org/2000/svg" viewBox="0 0 1000 1000"><path d="M556 778zM938 0H63C28 0 0 28 0 62v876c0 34 28 62 63 62h875c34 0 62-28 62-62V62c0-34-28-62-62-62zM188 219c0-18 14-32 31-32s31 14 31 32v62c0 17-14 31-31 31s-31-14-31-31v-62zm750 719H571c-6-42-10-84-13-125-19 2-38 3-58 3-130 0-256-47-354-133-15-13-16-35-3-50s35-16 50-3c84 75 194 116 307 116 19 0 37-1 55-3-2-116 7-207 7-209 1-8-2-17-8-24s-14-10-23-10h-93c2-34 5-92 15-157 18-123 51-220 94-281h391v875zM781 312c-17 0-31-14-31-31v-62c0-18 14-32 31-32s32 14 32 32v62c0 17-14 31-32 31zM528 816zm-28 0zm26-71zm-13 1zm344-113c-13-15-35-16-50-3-70 62-158 102-252 113 1 22 2 46 3 70 109-12 213-57 296-130 15-13 16-36 3-50zM558 813c-4 1-9 1-13 1 4 0 9 0 13-1zm-15 2z"/></svg>