<svg xmlns="http://www.w3.org/2000/svg" viewBox="0 0 1000 1000"><path d="M875 375c-34 0-62 28-62 62v250c0 35 28 63 62 63s63-28 63-63V437c0-34-29-62-63-62zm-750 0c-34 0-62 28-62 62v250c0 35 28 63 62 63s63-28 63-63V437c0-34-29-62-63-62zm94 344c0 52 42 93 94 93v126c0 34 28 62 62 62s63-28 63-62V812h125v126c0 34 28 62 62 62s63-28 63-62V812c51 0 93-41 93-93V375H219v344zm561-407c-10-85-58-159-127-204l31-63c8-15 2-34-14-42s-34-1-42 14l-31 63-8-3c-28-10-58-15-89-15s-61 5-89 15l-8 3-31-63c-8-15-27-21-42-14s-22 27-14 42l31 63c-69 44-117 119-126 204v32h560v-32h-1zm-374-62c-17 0-31-14-31-31s14-31 31-32c18 1 32 14 32 32s-14 31-32 31zm188 0c-17 0-31-14-31-31s13-31 31-32c17 1 31 14 31 32s-14 31-31 31z"/></svg>