<svg xmlns="http://www.w3.org/2000/svg" viewBox="0 0 1000 1000"><path d="M554 720c-80 37-154 36-204 33-60-5-108-21-129-35-13-9-30-6-39 7s-6 31 8 40c33 23 93 40 156 44 11 1 22 2 35 2 54 0 123-6 197-40 15-7 21-24 14-38s-23-20-38-14zm316-42c3-247 28-714-444-676C-41 40 83 532 76 697c-6 88-35 194-76 303h126c13-46 23-91 27-135 7 5 15 11 24 15 14 9 26 20 39 32 30 27 64 58 131 62h13c67 0 113-29 150-53 18-11 33-21 48-26 41-13 76-33 103-60l12-12c15 54 35 116 58 177h269c-65-100-131-198-130-323zM121 543c-4-80 34-148 86-151s98 60 103 140c0 5 0 9 1 13-17 4-32 10-45 17v-1c-5-46-29-81-55-78s-43 43-38 89c2 20 7 38 15 51-2 2-7 6-14 11-5 3-11 7-18 13-19-26-32-62-35-104zm529 199c-2 43-58 83-109 99h-1c-21 7-40 19-60 32-34 22-69 44-120 44h-10c-46-3-68-22-96-47-14-14-29-27-48-39h-1c-42-23-67-53-69-78-1-13 5-24 17-33 26-19 43-32 55-41s16-12 19-14c2-2 4-5 7-7 24-23 64-62 125-62 37 0 79 15 123 43 21 14 39 20 62 28 16 5 34 11 58 22 22 9 49 26 48 53zm-13-100c-4-2-8-4-13-6-22-9-39-15-53-20 8-16 13-35 13-56 1-51-25-93-58-93s-60 41-61 92v5c-21-9-41-16-60-20v-6c-2-93 55-170 127-172s133 72 135 165c1 42-10 81-30 111z"/></svg>