<svg xmlns="http://www.w3.org/2000/svg" width="1000" height="1000" viewBox="0 0 1000 1000"><path fill="currentColor" d="M800 426h-39c-4.3 0-7.8 3.5-7.8 7.8v39c0 4.3 3.5 7.8 7.8 7.8h39c4.3 0 7.8-3.5 7.8-7.8v-39c0-4.3-3.5-7.8-7.8-7.8zm31-102H715V117c0-4.3-3.5-7.8-7.8-7.8H293c-4.3 0-7.8 3.5-7.8 7.8v207H168c-43.2 0-78.1 35-78.1 78.1v320c0 17.3 14 31.3 31.3 31.3h164v129c0 4.3 3.5 7.8 7.8 7.8h414c4.3 0 7.8-3.5 7.8-7.8V754h164c17.3 0 31.3-14 31.3-31.3V402c0-43.2-35-78.1-78.1-78.1zM352 176h293v148H352zm293 648H352V555h293zm195-137H715V488H293v199H156V402c0-6.4 5.3-11.7 11.7-11.7h664c6.4 0 11.7 5.3 11.7 11.7z"/></svg>