<svg class="icon" viewBox="0 0 1000 1000" xmlns="http://www.w3.org/2000/svg"><defs><style>@font-face{font-family:feedback-iconfont;src:url(//at.alicdn.com/t/font_1031158_u69w8yhxdu.woff2?t=1630033759944) format(&quot;woff2&quot;),url(//at.alicdn.com/t/font_1031158_u69w8yhxdu.woff?t=1630033759944) format(&quot;woff&quot;),url(//at.alicdn.com/t/font_1031158_u69w8yhxdu.ttf?t=1630033759944) format(&quot;truetype&quot;)}</style></defs><path d="M73.143 804.571h585.143V731.43H73.143v73.142zm0-292.571h585.143v-73.143H73.143V512zm896 256a54.857 54.857 0 10-109.751.037 54.857 54.857 0 00109.75-.037zm-896-548.571h585.143v-73.143H73.143v73.143zm896 256a54.857 54.857 0 10-109.751.036 54.857 54.857 0 00109.75-.036zm0-292.572a54.857 54.857 0 10-109.751.037 54.857 54.857 0 00109.75-.037zM1024 658.286v219.428H0V658.286h1024zm0-292.572v219.429H0V365.714h1024zm0-292.571V292.57H0V73.143h1024z"/></svg>