<svg xmlns="http://www.w3.org/2000/svg" viewBox="0 0 1000 1000"><path d="M500 646c0-81-65-146-146-146 81 0 146-65 146-146 0 81 65 146 146 146-81 0-146 65-146 146zm310-106c1-13 3-26 3-40l-3-42 88-68c7-6 10-17 5-26l-84-144c-5-10-16-13-25-10l-104 42c-22-16-44-30-70-41l-16-110c-1-10-10-18-21-18H417c-11 0-19 8-21 18l-16 110c-26 11-48 25-70 41l-104-42c-9-3-20 0-25 10L98 364c-6 9-3 20 5 26l87 68c-1 14-2 28-2 42s1 27 2 40l-87 70c-8 6-11 17-5 26l83 144c5 10 16 13 25 10l104-43c22 17 44 31 70 42l16 110c2 10 10 18 21 18h166c11 0 20-8 21-18l16-110c26-11 48-25 70-42l104 43c9 3 20 0 25-10l84-144c5-9 2-20-5-26l-88-70z"/></svg>