<svg class="icon" viewBox="0 0 1000 1000" xmlns="http://www.w3.org/2000/svg"><path d="M300.576 796.576q0 30.272-21.44 51.712t-51.712 21.44q-29.728 0-51.424-21.728t-21.728-51.424q0-30.272 21.44-51.712t51.712-21.44 51.712 21.44 21.44 51.712zm284.576 117.696q0 30.272-21.44 51.712T512 987.424t-51.712-21.44-21.44-51.712 21.44-51.712T512 841.12t51.712 21.44 21.44 51.712zM182.848 512q0 30.272-21.44 51.712t-51.712 21.44-51.712-21.44T36.544 512t21.44-51.712 51.712-21.44 51.712 21.44T182.848 512zm686.88 284.576q0 29.728-21.728 51.424t-51.424 21.728q-30.272 0-51.712-21.44t-21.44-51.712 21.44-51.712 51.712-21.44 51.712 21.44 21.44 51.712zm-550.88-569.152q0 37.728-26.848 64.576t-64.576 26.848T162.848 292 136 227.424t26.848-64.576T227.424 136 292 162.848t26.848 64.576zM987.424 512q0 30.272-21.44 51.712t-51.712 21.44-51.712-21.44T841.12 512t21.44-51.712 51.712-21.44 51.712 21.44T987.424 512zM621.728 109.728q0 45.728-32 77.728t-77.728 32-77.728-32-32-77.728 32-77.728T512 0t77.728 32 32 77.728zm302.848 117.696q0 53.152-37.728 90.56t-90.272 37.44q-53.152 0-90.56-37.44t-37.44-90.56q0-52.576 37.44-90.272t90.56-37.728q52.576 0 90.272 37.728t37.728 90.272z"/></svg>