<svg xmlns="http://www.w3.org/2000/svg" viewBox="0 0 1000 1000"><path d="M313 187h625v125H313V187zm0 375V437h625v125H313zm0 250V687h625v125H313zM144 687c19 0 31 7 44 19s18 25 18 44-6 31-18 44c-13 12-32 18-44 18-19 0-31-6-44-18s-19-25-19-44 7-31 19-44c13-12 31-19 44-19zm0-500c19 0 31 7 44 19s18 25 18 44-6 31-18 44-32 18-44 18c-19 0-31-6-44-18s-19-25-19-44 7-31 19-44 31-19 44-19zm0 250c19 0 31 7 44 19s18 25 18 44-6 31-18 44c-13 12-32 18-44 18-19 0-31-6-44-18s-19-25-19-44 7-31 19-44c13-12 31-19 44-19z"/></svg>