<svg xmlns="http://www.w3.org/2000/svg" viewBox="0 0 1000 1000"><path d="M494.1 62.7c-38.4 0-75.9.2-113.1 0-11.7 0-13.4 7.6-13.4 16.7v204h126.5V62.7zm-35.8 118.5c0 6.6-5.3 12-11.9 12h-31.3c-6.6 0-11.9-5.3-11.9-12v-16.3c0-6.6 5.3-11.9 11.9-11.9h31.3c6.6 0 11.9 5.3 11.9 11.9v16.3zM632 77.5c0-11.3-5.9-15-16.9-15-28.6.4-57.1.2-85.7.2h-24.1v220.8H632v-206zm-35.8 103.7c0 6.6-5.3 12-12 12H553c-6.6 0-11.9-5.3-11.9-12v-16.3c0-6.6 5.3-11.9 11.9-11.9h31.2c6.7 0 12 5.3 12 11.9v16.3zm73.6 110.1c-113.2-.4-226.4 0-339.6 0-26.2 0-35.4 9.6-35.4 35.8v577.3c0 23.8 9.3 33.1 33.1 33.1h342.9c24.8 0 33.8-8.9 33.8-33.8V326.4c0-25.1-9.3-35.1-34.8-35.1zm9.3 576.7c0 21.5-7.6 29.5-29.5 29.5H349.4c-21.2 0-29.1-8-29.1-28.8v-15.2c0 20.8 8 28.8 29.1 28.8h300.2c21.9 0 29.5-8 29.5-29.5V868z"/></svg>