<svg xmlns="http://www.w3.org/2000/svg" viewBox="0 0 1000 1000"><path d="M396 167C223 167 83 279 83 417c0 78 45 148 116 194l-32 97 104-62c37 13 78 21 121 21-11-27-17-55-17-84 0-138 130-250 292-250 8 0 16 0 23 2-42-98-157-168-294-168zM271 271c23 0 42 19 42 41 0 23-19 42-42 42s-42-19-42-42c0-22 19-41 42-41zm208 0c23 0 42 19 42 41 0 23-19 42-42 42s-41-19-41-42c0-22 18-41 41-41zm188 104c-138 0-250 93-250 208s112 209 250 209c28 0 54-4 79-11l87 52-25-78c65-38 109-100 109-172 0-115-112-208-250-208zm-84 104c23 0 42 19 42 42s-19 41-42 41-41-18-41-41 18-42 41-42zm167 0c23 0 42 19 42 42s-19 41-42 41-42-18-42-41 19-42 42-42z"/></svg>