<svg xmlns="http://www.w3.org/2000/svg" viewBox="0 0 270 270">
  <g>
    <g transform="translate(0 20)">
      <path fill="#285D8F" d="M211.6 51c6.8-7.8 15-11 24.2-7.5 8.3 3 13 9.8 12 19 17 12.8 18.3 19 7.6 38.5 6 6 10.7 12.8 9.8 22.3-.2 2.3 1.7 4.8 2.6 7.2 5.2 15.4-4.6 28.2-20.6 27l-16.3-1.7c5 5.4 9 9.2 12.5 13.3 8.4 9.6 10 17.4 5.4 25.5-4.7 8.2-12.5 11.2-24.2 9.4l-6-1.5c0 2.8.2 5.2.5 7.6 1.2 9.2 0 17.4-8.6 22.6-7.7 4.7-19.5 3.3-27-3.2-3.6-3-6.6-7-10-10.6-5.5 2.4-5 7.7-6 12.2-3 13-7.2 17.6-17.2 19-9.5 1-15-2.8-20.8-14.7-.3-.6-1-1-2-2-6.5 7.6-13.2 15-24.2 15-9.4 0-15.2-6.3-18.4-20l-9.7-5.4c-13.4 8.5-22.2 10-34-6.2-9-1-18-2.2-21.5-12.6-4-11.3 1.6-19.3 12.4-26.8l-12.5 1C6 178.5-3.3 166 1 153c2.2-6.7 5.3-13 7.5-19.7 4-12 5-24.2-.8-36.3-1.7-3.5-3.4-8.7-2-11.6 3.7-7.8 9.2-14.7 13.6-22 5-8.6 12.6-11 20.2-9.6 7.2-10 13-19.3 20.3-27.4 3.4-3.7 9.5-5 16.4-8.2C88.7 3 98.8 3.7 114 23.4c8.5-9.8 10.2-10.4 26.8-9.3C145.4 3.6 154-1.7 165.5.8c9.6 2 14 10.2 15.2 20.7 9.7-4.6 19.4-7.6 27.5 1.5 7.3 8 5.3 17.7 3.4 28zM186 90.8c-17.5-.2-31 12.7-30.8 29.6 0 17.3 13.3 31 30 31 16.6 0 29.6-13.5 30-30.8.4-14-13-31.7-29.3-29.8zM84 88.6c-17.7-.2-30.7 12-31 29.3 0 17.2 13 31 29.6 31.2 16.7.2 30.3-13.4 30.4-30.4.2-17-12.4-30-29-30.2z"/>
      <path fill="#549FC4" d="M258 71.4c1.6 6.7 1.8 9.6 1.8 11.7 0 2.5-.7 3.8-4 17 7.6-13.8 8.8-20.8 2-28.6zM232.5 156l14.6 1.4c16 1.3 26-11.4 20.6-27-.8-2.3-2.8-4.8-2.6-7 .7-7.3-1.8-13-5.7-17.8 2 3.7 3 7.8 2.4 12.7-.3 2.3-.4 3.6 1.2 6.7 9 17.6-5.7 28.2-10.6 30-8.4 2.8-20 1-20 1zm13 33.5c-4.6 8.2-12.4 11.2-24 9.4-2-.4-3.7-1-6.2-1.5.2 2.8.3 5.2.6 7.6 1.2 9.2 0 17.4-8.6 22.6-7.7 4.7-19.5 3.3-27-3.2-3.6-3-6.6-7-10-10.6-5.5 2.4-5 7.7-6 12.2-3 13-7.2 17.6-17.2 19-6.8.8-11.6-1-16-6.6 5.4 9.5 10.6 12.6 19.2 11.5 10-1.3 14.2-6 17-19 1-4.4.7-9.8 6.2-12.2 3.4 3.6 6.4 7.5 10 10.6 7.5 6.5 19.3 7.8 27 3.2 8.5-5.2 10-13.4 8.6-22.5-.3-2.3-.4-4.8-.6-7.5l6 1.4c11.8 1.8 19.6-1.3 24.2-9.5 4-7.3 3.2-14.3-3-22.5 3.2 6 3 11.7-.2 17.5z"/>
      <g transform="translate(190 122)">
        <circle r="16" fill="#111">
          <animateTransform attributeName="transform" type="scale" calcMode="linear" values="1 1; 1 0; 1 1" begin="3s; loop.end + 3s" dur="0.15s" />
        </circle>
      </g>
      <g transform="translate(87 120)">
        <circle r="16" fill="#111">
          <animateTransform attributeName="transform" type="scale" calcMode="linear" values="1 1; 1 0; 1 1" begin="3s; loop.end + 3s" dur="0.15s" />
        </circle>
      </g>
    </g>
    <rect id="looper" x="0" y="0" width="1" height="1" style="fill: none; stroke: none">
      <set id="loop" attributeName="x" to="0" begin="0s; loop.end" dur="8s" fill="freeze"/>
    </rect>
  </g>
</svg>
